<?xml version="1.0" standalone="no"?>
<!DOCTYPE svg PUBLIC "-//W3C//DTD SVG 1.1//EN" "http://www.w3.org/Graphics/SVG/1.1/DTD/svg11.dtd" >
<svg xmlns="http://www.w3.org/2000/svg" xmlns:xlink="http://www.w3.org/1999/xlink" version="1.1" viewBox="-10 0 1034 1024">
   <path fill="currentColor"
d="M781.227 0l-14.9326 0.426758c-66.1328 5.54688 -104.96 51.2002 -110.933 97.2803c-6.40039 51.2002 27.7324 102.4 110.08 97.2803c91.7324 -5.12012 131.84 -51.2002 132.267 -97.2803c0.852539 -49.0674 -42.667 -97.2803 -116.48 -97.707h-0.000976562z
M307.627 14.5068c-0.255859 -0.00195312 -0.55957 -0.00292969 -0.863281 -0.00292969c-56.6572 0 -103.62 41.5186 -112.121 95.79l-0.0830078 0.639648c-6.39941 48.2139 23.8936 96.8535 104.107 96c95.1475 -1.70703 141.227 -58.4521 134.827 -109.652
c-5.12012 -42.667 -46.5068 -81.9199 -125.867 -82.7734v-0.000976562zM834.56 386.133c-6.30859 0.136719 -12.2422 0.445312 -18.1289 0.922852l1.06348 -0.0683594c-225.28 23.04 -236.373 25.5996 -651.093 34.9863c-174.934 0.427734 -139.947 602.027 233.812 602.027
c349.867 0 773.12 -646.4 434.347 -637.867zM787.627 501.333c135.68 -2.9873 -123.733 406.613 -375.467 407.893c-318.293 0 -274.773 -375.467 -221.013 -377.6c369.92 -14.9326 464.213 -27.3066 596.479 -30.293z" />
</svg>
